# xmcd
#
# Track frame offsets:
#  150
#  1246
#  25220
#  41822
#  67753
#  94183
#  115100
#  143557
#  168482
#  179231
#  200467
#  218431
#  232236
#  261289
#  290135
#  303747
#
# Disc length: 4077 seconds
#
# Revision: 1
# Processed by: cddbd v1.5.1PL2 Copyright (c) Steve Scherf et al.
# Submitted via: Collectorz.com_Music_Collector 6.11
#
DISCID=ec0feb10
DTITLE=Various Artist - Blues Harp Meltdown - Vol 3 Legends [CD2)
DYEAR=2006
DGENRE=Blues
TTITLE0=Carey Bell - Introduction
TTITLE1=Carey Bell - Dirty Shame
TTITLE2=Carey Bell - It Ain't Right
TTITLE3=Carey Bell - I Shudda Did
TTITLE4=Carey Bell - When I Get Drunk
TTITLE5=Carey Bell - I'm Ready
TTITLE6=Carey Bell - Too Bad, Too Bad
TTITLE7=Carey Bell - One Day
TTITLE8=Lazy Lester - Instrumental Ally Rock
TTITLE9=Lazy Lester - Blues Stop Knocking
TTITLE10=Lazy Lester - Bloodstains On The Wall
TTITLE11=Lazy Lester - Nothing In This World
TTITLE12=Lazy Lester - Raining In My Heart
TTITLE13=Lazy Lester - Jambalaya
TTITLE14=Lazy Lester - Sugar Coated Love
TTITLE15=Mark Hummel - Hummel's Sign Off
EXTD=
EXTT0=
EXTT1=
EXTT2=
EXTT3=
EXTT4=
EXTT5=
EXTT6=
EXTT7=
EXTT8=
EXTT9=
EXTT10=
EXTT11=
EXTT12=
EXTT13=
EXTT14=
EXTT15=
PLAYORDER=
